<svg width="16" height="17" viewBox="0 0 16 17" fill="none" xmlns="http://www.w3.org/2000/svg">
<path d="M3.80899 13.6404C2.93642 12.9867 2.22824 12.1386 1.74064 11.1634C1.25304 10.1882 0.999455 9.11277 1 8.02247C1 4.14396 4.14396 1 8.02247 1C11.901 1 15.0449 4.14396 15.0449 8.02247C15.0455 9.11277 14.7919 10.1882 14.3043 11.1634C13.8167 12.1386 13.1085 12.9867 12.236 13.6404" stroke="black" stroke-width="1.5" stroke-linecap="round" stroke-linejoin="round"/>
<path d="M3.80899 13.6404C2.93642 12.9867 2.22824 12.1386 1.74064 11.1634C1.25304 10.1882 0.999455 9.11277 1 8.02247C1 4.14396 4.14396 1 8.02247 1C11.901 1 15.0449 4.14396 15.0449 8.02247C15.0455 9.11277 14.7919 10.1882 14.3043 11.1634C13.8167 12.1386 13.1085 12.9867 12.236 13.6404" stroke="black" stroke-width="1.5" stroke-linecap="round" stroke-linejoin="round"/>
<path d="M4.88203 10.8315C4.33974 10.2252 3.98453 9.47496 3.85926 8.67127C3.73399 7.86758 3.84403 7.04481 4.17608 6.30228C4.50813 5.55975 5.04801 4.92921 5.73054 4.48676C6.41308 4.04431 7.20908 3.80888 8.02248 3.80888C8.83587 3.80888 9.63188 4.04431 10.3144 4.48676C10.9969 4.92921 11.5368 5.55975 11.8689 6.30228C12.2009 7.04481 12.311 7.86758 12.1857 8.67127C12.0604 9.47496 11.7052 10.2252 11.1629 10.8315" stroke="black" stroke-width="1.5" stroke-linecap="round" stroke-linejoin="round"/>
<path fill-rule="evenodd" clip-rule="evenodd" d="M6.09128 8.02247C6.09128 7.51029 6.29474 7.01909 6.65691 6.65692C7.01907 6.29476 7.51028 6.09129 8.02246 6.09129C8.53464 6.09129 9.02584 6.29476 9.38801 6.65692C9.75017 7.01909 9.95364 7.51029 9.95364 8.02247C9.95364 8.53465 9.75017 9.02586 9.38801 9.38802C9.02584 9.75019 8.53464 9.95365 8.02246 9.95365C7.51028 9.95365 7.01907 9.75019 6.65691 9.38802C6.29474 9.02586 6.09128 8.53465 6.09128 8.02247Z" fill="black"/>
<path d="M10.184 15.3869C10.1087 15.8378 9.87593 16.2473 9.52708 16.5427C9.17822 16.838 8.73591 17.0001 8.27881 17H7.84973C7.39264 17.0001 6.95032 16.838 6.60147 16.5427C6.25261 16.2473 6.01984 15.8378 5.94454 15.3869L5.58709 13.2423C5.41856 12.2324 6.21842 11.4529 6.99299 10.9368C7.96069 10.2914 8.29355 10.368 9.13485 10.9298C9.87782 11.4242 10.7093 12.2324 10.5407 13.2423L10.184 15.3869Z" fill="black"/>
</svg>
